<?xml version="1.0" standalone="no"?><!DOCTYPE svg PUBLIC "-//W3C//DTD SVG 1.1//EN" "http://www.w3.org/Graphics/SVG/1.1/DTD/svg11.dtd"><svg t="1611297545762" class="icon" viewBox="0 0 1024 1024" version="1.1" xmlns="http://www.w3.org/2000/svg" p-id="4969" xmlns:xlink="http://www.w3.org/1999/xlink" width="200" height="200"><defs><style type="text/css"></style></defs><path d="M646.4 327.7c-12.8 0-25.6 4.9-35.4 14.6L342.3 611c-19.4 19.4-19.4 51.3 0 70.7 9.7 9.7 22.5 14.6 35.4 14.6s25.6-4.9 35.4-14.6L681.7 413c19.4-19.4 19.4-51.3 0-70.7-9.7-9.7-22.5-14.6-35.3-14.6z" fill="#2c2c2c" p-id="4970"></path><path d="M512 162c47.3 0 93.1 9.2 136.2 27.5 41.7 17.6 79.1 42.9 111.3 75 32.2 32.2 57.4 69.6 75 111.3C852.8 418.9 862 464.7 862 512s-9.2 93.1-27.5 136.2c-17.6 41.7-42.9 79.1-75 111.3-32.2 32.2-69.6 57.4-111.3 75C605.1 852.8 559.3 862 512 862s-93.1-9.2-136.2-27.5c-41.7-17.6-79.1-42.9-111.3-75-32.2-32.2-57.4-69.6-75-111.3C171.2 605.1 162 559.3 162 512s9.2-93.1 27.5-136.2c17.6-41.7 42.9-79.1 75-111.3 32.2-32.2 69.6-57.4 111.3-75C418.9 171.2 464.7 162 512 162m0-80C274.5 82 82 274.5 82 512s192.5 430 430 430 430-192.5 430-430S749.5 82 512 82z" fill="#2c2c2c" p-id="4971"></path><path d="M377.6 327.7c-12.8 0-25.6 4.9-35.4 14.6-19.4 19.4-19.4 51.3 0 70.7L611 681.7c9.7 9.7 22.5 14.6 35.4 14.6s25.6-4.9 35.4-14.6c19.4-19.4 19.4-51.3 0-70.7L413 342.3c-9.7-9.7-22.5-14.6-35.4-14.6z" fill="#2c2c2c" p-id="4972"></path></svg>