<?xml version="1.0" standalone="no"?><!DOCTYPE svg PUBLIC "-//W3C//DTD SVG 1.1//EN" "http://www.w3.org/Graphics/SVG/1.1/DTD/svg11.dtd"><svg t="1611295732779" class="icon" viewBox="0 0 1024 1024" version="1.1" xmlns="http://www.w3.org/2000/svg" p-id="6536" xmlns:xlink="http://www.w3.org/1999/xlink" width="200" height="200"><defs><style type="text/css"></style></defs><path d="M806.31 1004.13H217.69c-109.1 0-197.83-88.74-197.83-197.81V217.69c0-109.07 88.74-197.82 197.83-197.82h588.62c109.1 0 197.83 88.75 197.83 197.82v588.64c0 109.07-88.73 197.8-197.83 197.8zM217.69 97.57c-66.25 0-120.13 53.88-120.13 120.11v588.64c0 66.22 53.88 120.1 120.13 120.1h588.62c66.25 0 120.13-53.88 120.13-120.1V217.69c0-66.24-53.88-120.11-120.13-120.11H217.69v-0.01z" fill="#333333" p-id="6537"></path><path d="M494.93 300.08h77.71v420.77h-77.71z" fill="#333333" p-id="6538"></path><path d="M533.78 324.93m-81.76 0a81.76 81.76 0 1 0 163.52 0 81.76 81.76 0 1 0-163.52 0Z" fill="#C6C6C6" p-id="6539"></path><path d="M730.78 300.08h77.71v420.77h-77.71z" fill="#333333" p-id="6540"></path><path d="M769.62 673.98m-81.76 0a81.76 81.76 0 1 0 163.52 0 81.76 81.76 0 1 0-163.52 0Z" fill="#C6C6C6" p-id="6541"></path><path d="M270.58 300.08h77.71v420.77h-77.71z" fill="#333333" p-id="6542"></path><path d="M309.44 510.47m-81.76 0a81.76 81.76 0 1 0 163.52 0 81.76 81.76 0 1 0-163.52 0Z" fill="#C6C6C6" p-id="6543"></path></svg>