<?xml version="1.0" standalone="no"?><!DOCTYPE svg PUBLIC "-//W3C//DTD SVG 1.1//EN" "http://www.w3.org/Graphics/SVG/1.1/DTD/svg11.dtd"><svg t="1611297114504" class="icon" viewBox="0 0 1024 1024" version="1.1" xmlns="http://www.w3.org/2000/svg" p-id="5393" xmlns:xlink="http://www.w3.org/1999/xlink" width="200" height="200"><defs><style type="text/css"></style></defs><path d="M375.893333 853.333333H89.6c-26.581333 0-46.933333-20.906667-46.933333-48.298666 0-27.392 20.352-48.298667 46.933333-48.298667h286.293333c26.581333 0 46.933333 20.906667 46.933334 48.298667A47.786667 47.786667 0 0 1 375.893333 853.333333zM375.893333 560.298667H89.6c-26.581333 0-46.933333-20.906667-46.933333-48.298667 0-27.392 20.352-48.298667 46.933333-48.298667h286.293333c26.581333 0 46.933333 20.906667 46.933334 48.298667a47.786667 47.786667 0 0 1-46.933334 48.298667zM375.893333 267.264H89.6c-26.581333 0-46.933333-20.906667-46.933333-48.298667C42.666667 191.616 63.018667 170.666667 89.6 170.666667h286.293333c26.581333 0 46.933333 20.906667 46.933334 48.298666a47.786667 47.786667 0 0 1-46.933334 48.298667z" fill="#172B4D" p-id="5394"></path><path d="M311.765333 853.333333c-26.624 0-46.933333-20.906667-46.933333-48.298666 0-27.392 20.309333-48.298667 46.933333-48.298667H934.4c26.581333 0 46.933333 20.906667 46.933333 48.298667 0 27.349333-20.352 48.298667-46.933333 48.298666H311.765333c1.536 0 1.536 0 0 0zM311.765333 560.298667c-26.624 0-46.933333-20.906667-46.933333-48.298667 0-27.392 20.309333-48.298667 46.933333-48.298667H934.4c26.581333 0 46.933333 20.906667 46.933333 48.298667 0 27.392-20.352 48.298667-46.933333 48.298667H311.765333c1.536 0 1.536 0 0 0zM311.765333 267.264c-26.624 0-46.933333-20.906667-46.933333-48.298667 0-27.349333 20.309333-48.298667 46.933333-48.298666H934.4c26.581333 0 46.933333 20.906667 46.933333 48.298666 0 27.392-20.352 48.298667-46.933333 48.298667H311.765333c1.536 0 1.536 0 0 0z" fill="#172B4D" p-id="5395"></path></svg>