<?xml version="1.0" standalone="no"?><!DOCTYPE svg PUBLIC "-//W3C//DTD SVG 1.1//EN" "http://www.w3.org/Graphics/SVG/1.1/DTD/svg11.dtd"><svg t="1611296427147" class="icon" viewBox="0 0 1126 1024" version="1.1" xmlns="http://www.w3.org/2000/svg" p-id="3760" xmlns:xlink="http://www.w3.org/1999/xlink" width="219.921875" height="200"><defs><style type="text/css"></style></defs><path d="M896 76.8a153.6 153.6 0 0 1 153.6 153.6v409.6a153.6 153.6 0 0 1-153.6 153.6H428.8L256 947.2v-153.6H230.4a153.6 153.6 0 0 1-153.6-153.6V230.4a153.6 153.6 0 0 1 153.6-153.6h665.6m0-76.8H230.4a230.7072 230.7072 0 0 0-230.4 230.4v409.6a231.0144 231.0144 0 0 0 179.2 224.768V947.2a77.1072 77.1072 0 0 0 45.3376 70.144A79.5904 79.5904 0 0 0 256 1024a76.544 76.544 0 0 0 51.0464-19.456l151.04-134.144H896a230.7072 230.7072 0 0 0 230.4-230.4V230.4a230.7072 230.7072 0 0 0-230.4-230.4zM601.6 435.2a38.4 38.4 0 1 1-38.4-38.4 38.4 38.4 0 0 1 38.4 38.4z m256 0a38.4 38.4 0 1 1-38.4-38.4 38.4 38.4 0 0 1 38.4 38.4z m-508.8 0a38.4 38.4 0 1 1-38.4-38.4 38.4 38.4 0 0 1 38.4 38.4z" p-id="3761" fill="#2c2c2c"></path></svg>